<svg width="938" height="279" viewBox="0 0 938 279" fill="none" xmlns="http://www.w3.org/2000/svg">
<path opacity="0.1" d="M67.2042 278.102V242.252H103.659V278.102H67.2042ZM67.2042 36.0773V0.227411H103.659V36.0773H67.2042ZM86.2636 252.538C70.9354 252.538 57.2207 249.714 45.1194 244.067C33.0182 238.42 23.0851 230.453 15.3202 220.167C7.65606 209.881 2.76514 197.679 0.64743 183.561L36.6486 177.813C39.4722 190.217 45.5228 200.099 54.8004 207.461C64.1789 214.722 75.3725 218.352 88.3813 218.352C100.886 218.352 111.172 215.428 119.239 209.579C127.307 203.629 131.341 196.116 131.341 187.04C131.341 180.687 129.425 175.544 125.593 171.611C121.761 167.577 115.609 164.249 107.138 161.628L54.6491 145.291C24.0936 135.812 8.81576 117.256 8.81576 89.6252C8.81576 76.7172 11.8915 65.4732 18.0429 55.893C24.2952 46.2121 33.0686 38.8001 44.3631 33.6571C55.6576 28.4132 68.9689 25.8417 84.2972 25.9425C98.5161 26.0434 111.172 28.6149 122.265 33.6571C133.458 38.6992 142.736 45.96 150.098 55.4393C157.56 64.8177 162.854 76.213 165.98 89.6252L128.618 96.4322C127.206 89.2723 124.433 82.9695 120.298 77.524C116.164 72.0784 110.97 67.843 104.718 64.8177C98.4657 61.7924 91.5075 60.1789 83.8434 59.9772C76.4818 59.8764 69.8765 61.0361 64.0276 63.4563C58.1787 65.7757 53.5399 69.1036 50.1112 73.4398C46.6825 77.6753 44.9682 82.4653 44.9682 87.81C44.9682 93.7598 47.338 98.8524 52.0776 103.088C56.9181 107.323 64.5318 110.954 74.9187 113.979L114.096 125.324C132.954 130.769 146.518 138.181 154.787 147.56C163.157 156.837 167.342 169.191 167.342 184.62C167.342 198.133 163.964 209.982 157.207 220.167C150.451 230.352 140.971 238.319 128.769 244.067C116.567 249.714 102.399 252.538 86.2636 252.538ZM185.019 248V243.008L292.417 64.3639H192.582V30.178H355.495V35.321L248.701 213.663H352.923V248H185.019ZM382.597 248V30.178H523.274V64.3639H419.052V118.063H505.122V152.249H419.052V213.814H523.274V248H382.597ZM550.49 248V30.178H640.493C642.61 30.178 645.333 30.2788 648.661 30.4805C651.989 30.5813 655.064 30.8839 657.888 31.3881C670.494 33.3041 680.88 37.4891 689.049 43.9431C697.318 50.3971 703.419 58.5654 707.352 68.4481C711.386 78.2299 713.402 89.121 713.402 101.121C713.402 118.87 708.915 134.148 699.94 146.955C690.965 159.661 677.2 167.527 658.644 170.552L643.064 171.914H586.945V248H550.49ZM675.586 248L632.627 159.359L669.687 151.19L716.882 248H675.586ZM586.945 137.879H638.98C640.997 137.879 643.266 137.778 645.787 137.576C648.308 137.375 650.627 136.971 652.745 136.366C658.796 134.854 663.535 132.181 666.964 128.349C670.494 124.517 672.964 120.181 674.376 115.34C675.889 110.5 676.645 105.76 676.645 101.121C676.645 96.4826 675.889 91.7429 674.376 86.9024C672.964 81.9611 670.494 77.5744 666.964 73.7424C663.535 69.9103 658.796 67.238 652.745 65.7253C650.627 65.1202 648.308 64.7673 645.787 64.6664C643.266 64.4648 640.997 64.3639 638.98 64.3639H586.945V137.879ZM833.252 252.538C811.47 252.538 792.814 247.798 777.284 238.319C761.754 228.739 749.804 215.428 741.434 198.385C733.165 181.342 729.03 161.577 729.03 139.089C729.03 116.601 733.165 96.8355 741.434 79.793C749.804 62.7504 761.754 49.4895 777.284 40.0102C792.814 30.4301 811.47 25.64 833.252 25.64C855.034 25.64 873.69 30.4301 889.22 40.0102C904.851 49.4895 916.801 62.7504 925.07 79.793C933.44 96.8355 937.625 116.601 937.625 139.089C937.625 161.577 933.44 181.342 925.07 198.385C916.801 215.428 904.851 228.739 889.22 238.319C873.69 247.798 855.034 252.538 833.252 252.538ZM833.252 218.201C847.874 218.302 860.026 215.075 869.707 208.52C879.489 201.965 886.8 192.738 891.64 180.838C896.582 168.939 899.052 155.022 899.052 139.089C899.052 123.156 896.582 109.34 891.64 97.6423C886.8 85.8436 879.489 76.6668 869.707 70.112C860.026 63.5572 847.874 60.1789 833.252 59.9772C818.63 59.8764 806.478 63.1034 796.797 69.6582C787.116 76.213 779.805 85.4402 774.863 97.3397C770.023 109.239 767.603 123.156 767.603 139.089C767.603 155.022 770.023 168.888 774.863 180.687C779.704 192.385 786.965 201.511 796.646 208.066C806.427 214.621 818.63 217.999 833.252 218.201Z" fill="#8A8A8A"/>
</svg>
